<mxfile host="app.diagrams.net" modified="2021-10-04T07:19:48.904Z" agent="5.0 (Windows NT 10.0; Win64; x64) AppleWebKit/537.36 (KHTML, like Gecko) Chrome/94.0.4606.61 Safari/537.36" etag="WcdmmdzJXF57dOx6POZU" version="15.0.6" type="github">
  <diagram id="Ivfcl6T0ANrEJV3cTgkt" name="Page-1">
    <mxGraphModel dx="2170" dy="1230" grid="1" gridSize="10" guides="1" tooltips="1" connect="1" arrows="1" fold="1" page="1" pageScale="1" pageWidth="1920" pageHeight="1200" math="0" shadow="0">
      <root>
        <mxCell id="0" />
        <mxCell id="1" parent="0" />
        <mxCell id="pkLOjQHIGv-MbTBdtxxs-35" style="edgeStyle=orthogonalEdgeStyle;rounded=0;jumpSize=6;orthogonalLoop=1;jettySize=auto;html=1;exitX=0.5;exitY=0;exitDx=0;exitDy=0;fontFamily=b nazanin;fontSize=37;strokeWidth=6;entryX=1;entryY=0.5;entryDx=0;entryDy=0;" edge="1" parent="1" source="pkLOjQHIGv-MbTBdtxxs-4" target="pkLOjQHIGv-MbTBdtxxs-20">
          <mxGeometry relative="1" as="geometry">
            <mxPoint x="1190" y="270" as="targetPoint" />
          </mxGeometry>
        </mxCell>
        <mxCell id="pkLOjQHIGv-MbTBdtxxs-43" style="edgeStyle=orthogonalEdgeStyle;rounded=0;jumpSize=6;orthogonalLoop=1;jettySize=auto;html=1;exitX=0.25;exitY=1;exitDx=0;exitDy=0;entryX=1;entryY=0.5;entryDx=0;entryDy=0;fontFamily=b nazanin;fontSize=37;strokeWidth=6;" edge="1" parent="1" source="pkLOjQHIGv-MbTBdtxxs-4" target="pkLOjQHIGv-MbTBdtxxs-19">
          <mxGeometry relative="1" as="geometry" />
        </mxCell>
        <mxCell id="pkLOjQHIGv-MbTBdtxxs-45" style="edgeStyle=orthogonalEdgeStyle;rounded=0;jumpSize=6;orthogonalLoop=1;jettySize=auto;html=1;exitX=0.75;exitY=1;exitDx=0;exitDy=0;entryX=0.5;entryY=0;entryDx=0;entryDy=0;fontFamily=b nazanin;fontSize=37;strokeColor=#000000;strokeWidth=6;" edge="1" parent="1" source="pkLOjQHIGv-MbTBdtxxs-4" target="pkLOjQHIGv-MbTBdtxxs-18">
          <mxGeometry relative="1" as="geometry" />
        </mxCell>
        <mxCell id="pkLOjQHIGv-MbTBdtxxs-4" value="مصرف خانگی" style="rounded=0;whiteSpace=wrap;html=1;fontFamily=b nazanin;fontSize=40;textDirection=rtl;" vertex="1" parent="1">
          <mxGeometry x="1620" y="660" width="220" height="120" as="geometry" />
        </mxCell>
        <mxCell id="pkLOjQHIGv-MbTBdtxxs-21" style="edgeStyle=orthogonalEdgeStyle;rounded=0;orthogonalLoop=1;jettySize=auto;html=1;exitX=1;exitY=0.5;exitDx=0;exitDy=0;entryX=0;entryY=0.5;entryDx=0;entryDy=0;fontFamily=b nazanin;fontSize=37;jumpSize=6;strokeWidth=6;strokeColor=#9999FF;" edge="1" parent="1" source="pkLOjQHIGv-MbTBdtxxs-7" target="pkLOjQHIGv-MbTBdtxxs-8">
          <mxGeometry relative="1" as="geometry" />
        </mxCell>
        <mxCell id="pkLOjQHIGv-MbTBdtxxs-22" style="edgeStyle=orthogonalEdgeStyle;rounded=0;orthogonalLoop=1;jettySize=auto;html=1;exitX=0.5;exitY=0;exitDx=0;exitDy=0;entryX=0;entryY=0.5;entryDx=0;entryDy=0;fontFamily=b nazanin;fontSize=37;strokeWidth=6;strokeColor=#7EA6E0;" edge="1" parent="1" source="pkLOjQHIGv-MbTBdtxxs-7" target="pkLOjQHIGv-MbTBdtxxs-13">
          <mxGeometry relative="1" as="geometry" />
        </mxCell>
        <mxCell id="pkLOjQHIGv-MbTBdtxxs-23" style="edgeStyle=orthogonalEdgeStyle;rounded=0;orthogonalLoop=1;jettySize=auto;html=1;exitX=0.5;exitY=1;exitDx=0;exitDy=0;entryX=0;entryY=0.5;entryDx=0;entryDy=0;fontFamily=b nazanin;fontSize=37;strokeWidth=6;strokeColor=#9999FF;" edge="1" parent="1" source="pkLOjQHIGv-MbTBdtxxs-7" target="pkLOjQHIGv-MbTBdtxxs-10">
          <mxGeometry relative="1" as="geometry" />
        </mxCell>
        <mxCell id="pkLOjQHIGv-MbTBdtxxs-7" value="مخازن، رواناب و آبخوان" style="rounded=0;whiteSpace=wrap;html=1;fontFamily=b nazanin;fontSize=37;textDirection=rtl;" vertex="1" parent="1">
          <mxGeometry x="50" y="290" width="220" height="120" as="geometry" />
        </mxCell>
        <mxCell id="pkLOjQHIGv-MbTBdtxxs-33" style="edgeStyle=orthogonalEdgeStyle;rounded=0;jumpSize=6;orthogonalLoop=1;jettySize=auto;html=1;exitX=0.25;exitY=0;exitDx=0;exitDy=0;entryX=0.25;entryY=1;entryDx=0;entryDy=0;fontFamily=b nazanin;fontSize=37;strokeColor=#9999FF;strokeWidth=6;" edge="1" parent="1" source="pkLOjQHIGv-MbTBdtxxs-8" target="pkLOjQHIGv-MbTBdtxxs-13">
          <mxGeometry relative="1" as="geometry" />
        </mxCell>
        <mxCell id="pkLOjQHIGv-MbTBdtxxs-8" value="پمپ‌ها" style="rounded=0;whiteSpace=wrap;html=1;fontFamily=b nazanin;fontSize=40;textDirection=rtl;" vertex="1" parent="1">
          <mxGeometry x="430" y="290" width="220" height="120" as="geometry" />
        </mxCell>
        <mxCell id="pkLOjQHIGv-MbTBdtxxs-34" style="edgeStyle=orthogonalEdgeStyle;rounded=0;jumpSize=6;orthogonalLoop=1;jettySize=auto;html=1;exitX=1;exitY=0.5;exitDx=0;exitDy=0;entryX=0.25;entryY=0;entryDx=0;entryDy=0;fontFamily=b nazanin;fontSize=37;strokeColor=#9999FF;strokeWidth=6;" edge="1" parent="1" source="pkLOjQHIGv-MbTBdtxxs-8" target="pkLOjQHIGv-MbTBdtxxs-4">
          <mxGeometry relative="1" as="geometry">
            <mxPoint x="1420" y="470" as="sourcePoint" />
            <Array as="points">
              <mxPoint x="760" y="350" />
              <mxPoint x="760" y="440" />
              <mxPoint x="1675" y="440" />
            </Array>
          </mxGeometry>
        </mxCell>
        <mxCell id="pkLOjQHIGv-MbTBdtxxs-60" style="edgeStyle=orthogonalEdgeStyle;rounded=0;jumpSize=6;orthogonalLoop=1;jettySize=auto;html=1;exitX=1;exitY=0.5;exitDx=0;exitDy=0;entryX=0;entryY=0.5;entryDx=0;entryDy=0;fontFamily=b nazanin;fontSize=37;startArrow=none;startFill=0;strokeColor=#FF2908;strokeWidth=6;" edge="1" parent="1" source="pkLOjQHIGv-MbTBdtxxs-10" target="pkLOjQHIGv-MbTBdtxxs-58">
          <mxGeometry relative="1" as="geometry" />
        </mxCell>
        <mxCell id="pkLOjQHIGv-MbTBdtxxs-10" value="برق‌آبی" style="rounded=0;whiteSpace=wrap;html=1;fontFamily=b nazanin;fontSize=40;textDirection=rtl;" vertex="1" parent="1">
          <mxGeometry x="430" y="580" width="220" height="120" as="geometry" />
        </mxCell>
        <mxCell id="pkLOjQHIGv-MbTBdtxxs-32" style="edgeStyle=orthogonalEdgeStyle;rounded=0;jumpSize=6;orthogonalLoop=1;jettySize=auto;html=1;exitX=1;exitY=0.5;exitDx=0;exitDy=0;entryX=0;entryY=0.5;entryDx=0;entryDy=0;fontFamily=b nazanin;fontSize=37;strokeColor=#9999FF;strokeWidth=6;" edge="1" parent="1" source="pkLOjQHIGv-MbTBdtxxs-13" target="pkLOjQHIGv-MbTBdtxxs-14">
          <mxGeometry relative="1" as="geometry" />
        </mxCell>
        <mxCell id="pkLOjQHIGv-MbTBdtxxs-13" value="آبیاری قطره‌ای، بارانی، عقربه‌ای و..." style="rounded=0;whiteSpace=wrap;html=1;fontFamily=b nazanin;fontSize=37;textDirection=rtl;" vertex="1" parent="1">
          <mxGeometry x="430" y="40" width="220" height="120" as="geometry" />
        </mxCell>
        <mxCell id="pkLOjQHIGv-MbTBdtxxs-42" style="edgeStyle=orthogonalEdgeStyle;rounded=0;jumpSize=6;orthogonalLoop=1;jettySize=auto;html=1;exitX=1;exitY=0.75;exitDx=0;exitDy=0;entryX=0.75;entryY=0;entryDx=0;entryDy=0;fontFamily=b nazanin;fontSize=37;strokeColor=#97D077;strokeWidth=6;exitPerimeter=0;" edge="1" parent="1" source="pkLOjQHIGv-MbTBdtxxs-14" target="pkLOjQHIGv-MbTBdtxxs-4">
          <mxGeometry relative="1" as="geometry" />
        </mxCell>
        <mxCell id="pkLOjQHIGv-MbTBdtxxs-46" style="edgeStyle=orthogonalEdgeStyle;rounded=0;jumpSize=6;orthogonalLoop=1;jettySize=auto;html=1;exitX=1;exitY=0.25;exitDx=0;exitDy=0;entryX=1;entryY=0.5;entryDx=0;entryDy=0;fontFamily=b nazanin;fontSize=37;strokeColor=#000000;strokeWidth=6;startArrow=classic;startFill=1;" edge="1" parent="1" source="pkLOjQHIGv-MbTBdtxxs-14" target="pkLOjQHIGv-MbTBdtxxs-18">
          <mxGeometry relative="1" as="geometry">
            <Array as="points">
              <mxPoint x="1880" y="70" />
              <mxPoint x="1880" y="1100" />
            </Array>
          </mxGeometry>
        </mxCell>
        <mxCell id="pkLOjQHIGv-MbTBdtxxs-14" value="محصولات زراعی" style="rounded=0;whiteSpace=wrap;html=1;fontFamily=b nazanin;fontSize=40;textDirection=rtl;" vertex="1" parent="1">
          <mxGeometry x="970" y="40" width="220" height="120" as="geometry" />
        </mxCell>
        <mxCell id="pkLOjQHIGv-MbTBdtxxs-38" style="edgeStyle=orthogonalEdgeStyle;rounded=0;jumpSize=6;orthogonalLoop=1;jettySize=auto;html=1;entryX=0.75;entryY=1;entryDx=0;entryDy=0;fontFamily=b nazanin;fontSize=37;strokeWidth=6;strokeColor=#9999FF;exitX=0.5;exitY=0;exitDx=0;exitDy=0;" edge="1" parent="1" source="pkLOjQHIGv-MbTBdtxxs-20" target="pkLOjQHIGv-MbTBdtxxs-13">
          <mxGeometry relative="1" as="geometry">
            <mxPoint x="1120" y="240" as="sourcePoint" />
            <Array as="points">
              <mxPoint x="1310" y="210" />
              <mxPoint x="595" y="210" />
            </Array>
          </mxGeometry>
        </mxCell>
        <mxCell id="pkLOjQHIGv-MbTBdtxxs-63" style="edgeStyle=orthogonalEdgeStyle;rounded=0;jumpSize=6;orthogonalLoop=1;jettySize=auto;html=1;exitX=1;exitY=0.5;exitDx=0;exitDy=0;entryX=0.25;entryY=1;entryDx=0;entryDy=0;fontFamily=b nazanin;fontSize=37;startArrow=none;startFill=0;strokeColor=#FF2908;strokeWidth=6;" edge="1" parent="1" source="pkLOjQHIGv-MbTBdtxxs-16" target="pkLOjQHIGv-MbTBdtxxs-8">
          <mxGeometry relative="1" as="geometry">
            <Array as="points">
              <mxPoint x="330" y="780" />
              <mxPoint x="330" y="480" />
              <mxPoint x="485" y="480" />
            </Array>
          </mxGeometry>
        </mxCell>
        <mxCell id="pkLOjQHIGv-MbTBdtxxs-64" style="edgeStyle=orthogonalEdgeStyle;rounded=0;jumpSize=6;orthogonalLoop=1;jettySize=auto;html=1;exitX=0.5;exitY=1;exitDx=0;exitDy=0;entryX=0.5;entryY=1;entryDx=0;entryDy=0;fontFamily=b nazanin;fontSize=37;startArrow=none;startFill=0;strokeColor=#FF2908;strokeWidth=6;" edge="1" parent="1" source="pkLOjQHIGv-MbTBdtxxs-16" target="pkLOjQHIGv-MbTBdtxxs-58">
          <mxGeometry relative="1" as="geometry">
            <Array as="points">
              <mxPoint x="150" y="900" />
              <mxPoint x="940" y="900" />
            </Array>
          </mxGeometry>
        </mxCell>
        <mxCell id="pkLOjQHIGv-MbTBdtxxs-16" value="نیروگاه تجدیدپذیر (خورشیدی، بادی و ...)" style="rounded=0;whiteSpace=wrap;html=1;fontFamily=b nazanin;fontSize=31;textDirection=rtl;" vertex="1" parent="1">
          <mxGeometry x="40" y="720" width="220" height="120" as="geometry" />
        </mxCell>
        <mxCell id="pkLOjQHIGv-MbTBdtxxs-18" value="کمپوست" style="rounded=0;whiteSpace=wrap;html=1;fontFamily=b nazanin;fontSize=40;textDirection=rtl;" vertex="1" parent="1">
          <mxGeometry x="1020" y="1040" width="220" height="120" as="geometry" />
        </mxCell>
        <mxCell id="pkLOjQHIGv-MbTBdtxxs-59" style="edgeStyle=orthogonalEdgeStyle;rounded=0;jumpSize=6;orthogonalLoop=1;jettySize=auto;html=1;exitX=0;exitY=0.5;exitDx=0;exitDy=0;entryX=1;entryY=0.25;entryDx=0;entryDy=0;fontFamily=b nazanin;fontSize=37;startArrow=none;startFill=0;strokeColor=#FF2908;strokeWidth=6;" edge="1" parent="1" source="pkLOjQHIGv-MbTBdtxxs-19" target="pkLOjQHIGv-MbTBdtxxs-58">
          <mxGeometry relative="1" as="geometry" />
        </mxCell>
        <mxCell id="pkLOjQHIGv-MbTBdtxxs-19" value="زباله سوز" style="rounded=0;whiteSpace=wrap;html=1;fontFamily=b nazanin;fontSize=40;textDirection=rtl;" vertex="1" parent="1">
          <mxGeometry x="1200" y="550" width="220" height="120" as="geometry" />
        </mxCell>
        <mxCell id="pkLOjQHIGv-MbTBdtxxs-20" value="تصفیه آب" style="rounded=0;whiteSpace=wrap;html=1;fontFamily=b nazanin;fontSize=40;textDirection=rtl;" vertex="1" parent="1">
          <mxGeometry x="1200" y="270" width="220" height="120" as="geometry" />
        </mxCell>
        <mxCell id="pkLOjQHIGv-MbTBdtxxs-65" style="edgeStyle=orthogonalEdgeStyle;rounded=0;jumpSize=6;orthogonalLoop=1;jettySize=auto;html=1;exitX=1;exitY=0.75;exitDx=0;exitDy=0;entryX=0;entryY=0.5;entryDx=0;entryDy=0;fontFamily=b nazanin;fontSize=37;startArrow=none;startFill=0;strokeColor=#FF2908;strokeWidth=6;" edge="1" parent="1" source="pkLOjQHIGv-MbTBdtxxs-58" target="pkLOjQHIGv-MbTBdtxxs-4">
          <mxGeometry relative="1" as="geometry">
            <Array as="points">
              <mxPoint x="1150" y="670" />
              <mxPoint x="1150" y="720" />
            </Array>
          </mxGeometry>
        </mxCell>
        <mxCell id="pkLOjQHIGv-MbTBdtxxs-66" style="edgeStyle=orthogonalEdgeStyle;rounded=0;jumpSize=6;orthogonalLoop=1;jettySize=auto;html=1;exitX=0.5;exitY=0;exitDx=0;exitDy=0;entryX=0.75;entryY=1;entryDx=0;entryDy=0;fontFamily=b nazanin;fontSize=37;startArrow=none;startFill=0;strokeColor=#FF2908;strokeWidth=6;" edge="1" parent="1" source="pkLOjQHIGv-MbTBdtxxs-58" target="pkLOjQHIGv-MbTBdtxxs-8">
          <mxGeometry relative="1" as="geometry" />
        </mxCell>
        <mxCell id="pkLOjQHIGv-MbTBdtxxs-67" style="edgeStyle=orthogonalEdgeStyle;rounded=0;jumpSize=6;orthogonalLoop=1;jettySize=auto;html=1;exitX=0.75;exitY=1;exitDx=0;exitDy=0;entryX=0.25;entryY=0;entryDx=0;entryDy=0;fontFamily=b nazanin;fontSize=37;startArrow=none;startFill=0;strokeColor=#FF2908;strokeWidth=6;" edge="1" parent="1" source="pkLOjQHIGv-MbTBdtxxs-58" target="pkLOjQHIGv-MbTBdtxxs-18">
          <mxGeometry relative="1" as="geometry" />
        </mxCell>
        <mxCell id="pkLOjQHIGv-MbTBdtxxs-68" style="edgeStyle=orthogonalEdgeStyle;rounded=0;jumpSize=6;orthogonalLoop=1;jettySize=auto;html=1;exitX=0.75;exitY=0;exitDx=0;exitDy=0;entryX=0;entryY=0.5;entryDx=0;entryDy=0;fontFamily=b nazanin;fontSize=37;startArrow=none;startFill=0;strokeColor=#FF2908;strokeWidth=6;" edge="1" parent="1" source="pkLOjQHIGv-MbTBdtxxs-58" target="pkLOjQHIGv-MbTBdtxxs-20">
          <mxGeometry relative="1" as="geometry" />
        </mxCell>
        <mxCell id="pkLOjQHIGv-MbTBdtxxs-58" value="شبکه توزیع برق" style="rounded=0;whiteSpace=wrap;html=1;fontFamily=b nazanin;fontSize=40;textDirection=rtl;" vertex="1" parent="1">
          <mxGeometry x="830" y="580" width="220" height="120" as="geometry" />
        </mxCell>
        <mxCell id="pkLOjQHIGv-MbTBdtxxs-70" value="آب" style="endArrow=none;html=1;fontFamily=b nazanin;fontSize=37;strokeWidth=6;fontColor=#9999FF;strokeColor=#9999FF;" edge="1" parent="1">
          <mxGeometry width="50" height="50" relative="1" as="geometry">
            <mxPoint x="50" y="1010" as="sourcePoint" />
            <mxPoint x="240" y="1010" as="targetPoint" />
            <Array as="points" />
          </mxGeometry>
        </mxCell>
        <mxCell id="pkLOjQHIGv-MbTBdtxxs-71" value="انرژی" style="endArrow=none;html=1;fontFamily=b nazanin;fontSize=37;strokeColor=#FF2908;strokeWidth=6;fontColor=#FF2908;" edge="1" parent="1">
          <mxGeometry width="50" height="50" relative="1" as="geometry">
            <mxPoint x="50" y="1060" as="sourcePoint" />
            <mxPoint x="240" y="1060" as="targetPoint" />
            <Array as="points" />
          </mxGeometry>
        </mxCell>
        <mxCell id="pkLOjQHIGv-MbTBdtxxs-72" value="زباله" style="endArrow=none;html=1;fontFamily=b nazanin;fontSize=37;strokeWidth=6;" edge="1" parent="1">
          <mxGeometry width="50" height="50" relative="1" as="geometry">
            <mxPoint x="50" y="1160" as="sourcePoint" />
            <mxPoint x="240" y="1160" as="targetPoint" />
            <Array as="points" />
          </mxGeometry>
        </mxCell>
        <mxCell id="pkLOjQHIGv-MbTBdtxxs-73" value="غذا" style="endArrow=none;html=1;fontFamily=b nazanin;fontSize=37;strokeWidth=6;fontColor=#97D077;strokeColor=#97D077;" edge="1" parent="1">
          <mxGeometry width="50" height="50" relative="1" as="geometry">
            <mxPoint x="50" y="1110" as="sourcePoint" />
            <mxPoint x="240" y="1110" as="targetPoint" />
            <Array as="points" />
          </mxGeometry>
        </mxCell>
      </root>
    </mxGraphModel>
  </diagram>
</mxfile>
